# xmcd
#
# Track frame offsets: 
#        150
#        23826
#        37752
#        52248
#        74425
#        93475
#        125673
#        147596
#        166797
#        180598
#        206698
#        220425
#        238650
#
# Disc length: 3422 seconds
#
# Revision: 1
# Processed by: cddbd v1.5.2PL0 Copyright (c) Steve Scherf et al.
# Submitted via: ExactAudioCopy v0.99pb5
#
DISCID=c30d5c0d
DTITLE=Hokus - Tibute to Nalepa
DYEAR=2009
DGENRE=Blues
TTITLE0=Ten o tobie film
TTITLE1=Sny kolorowe
TTITLE2=Nauczylem sie niewiary
TTITLE3=Jedz ostroznie nie popedzaj kol
TTITLE4=Swiety Boze nie pomoze
TTITLE5=Modlitwa
TTITLE6=Kiedy bylem malym chlopcem
TTITLE7=Noca puka ktos
TTITLE8=Oni zaraz przyjda tu
TTITLE9=Co sie stalo kwiatom
TTITLE10=Pozegnalny blues
TTITLE11=Jest gdzies taki dom
TTITLE12=Rzeka dziecinstwa
EXTD=
EXTT0=
EXTT1=
EXTT2=
EXTT3=
EXTT4=
EXTT5=
EXTT6=
EXTT7=
EXTT8=
EXTT9=
EXTT10=
EXTT11=
EXTT12=
PLAYORDER=
